<svg xmlns="http://www.w3.org/2000/svg" xmlns:xlink="http://www.w3.org/1999/xlink" width="100.0" height="100.0" viewBox="-1.026 -0.526 2.052 1.052" preserveAspectRatio="xMinYMin meet"><g transform="matrix(1,0,0,-1,0,0.0)"><g><path fill-rule="evenodd" fill="#66cc99" stroke="#555555" stroke-width="0.04104" opacity="0.6" d="M -0.55,-0.45 L -0.55,-0.05 L -0.95,-0.05 L -0.95,-0.45 L -0.55,-0.45 z" /><path fill-rule="evenodd" fill="#66cc99" stroke="#555555" stroke-width="0.04104" opacity="0.6" d="M -0.05,-0.45 L -0.05,-0.05 L -0.45,-0.05 L -0.45,-0.45 L -0.05,-0.45 z" /><path fill-rule="evenodd" fill="#66cc99" stroke="#555555" stroke-width="0.04104" opacity="0.6" d="M 0.45,-0.45 L 0.45,-0.05 L 0.05,-0.05 L 0.05,-0.45 L 0.45,-0.45 z" /><path fill-rule="evenodd" fill="#66cc99" stroke="#555555" stroke-width="0.04104" opacity="0.6" d="M 0.95,-0.45 L 0.95,-0.05 L 0.55,-0.05 L 0.55,-0.45 L 0.95,-0.45 z" /><path fill-rule="evenodd" fill="#66cc99" stroke="#555555" stroke-width="0.04104" opacity="0.6" d="M -0.55,0.05 L -0.55,0.45 L -0.95,0.45 L -0.95,0.05 L -0.55,0.05 z" /><path fill-rule="evenodd" fill="#66cc99" stroke="#555555" stroke-width="0.04104" opacity="0.6" d="M -0.05,0.05 L -0.05,0.45 L -0.45,0.45 L -0.45,0.05 L -0.05,0.05 z" /><path fill-rule="evenodd" fill="#66cc99" stroke="#555555" stroke-width="0.04104" opacity="0.6" d="M 0.45,0.05 L 0.45,0.45 L 0.05,0.45 L 0.05,0.05 L 0.45,0.05 z" /><path fill-rule="evenodd" fill="#66cc99" stroke="#555555" stroke-width="0.04104" opacity="0.6" d="M 0.95,0.05 L 0.95,0.45 L 0.55,0.45 L 0.55,0.05 L 0.95,0.05 z" /></g></g></svg>